<svg width="675" height="54" viewBox="0 0 675 54" fill="none" xmlns="http://www.w3.org/2000/svg">
<path d="M1 49.5225C25.6331 49.7764 50.1696 51.4381 74.7778 52.4114C128.676 54.5429 181.808 50.6074 235.333 44.3002C347.719 31.0573 462.729 10.9558 576.222 20.6336C587.218 21.5712 604.239 21.8441 614.333 27.5225C625.834 33.9916 587.964 29.5684 574.778 29.078C473.488 25.311 372.362 25.9345 271 25.5225C193.598 25.2078 115.591 17.2948 38.2222 22.5225C17.8662 23.8979 31.9464 23.6484 43.4444 23.4114C88.3808 22.4848 133.272 18.3643 178.111 15.5225C300.071 7.79261 421.455 2.56682 543.667 5.07802C580.811 5.84125 618.084 7.5729 655.222 5.96691C663.069 5.62758 683.928 7.16501 667 1.52246" stroke="white" stroke-width="1.5" stroke-linecap="round" stroke-linejoin="round"/>
</svg>
