<svg width="38" height="38" viewBox="0 0 38 38" fill="none" xmlns="http://www.w3.org/2000/svg">
<path d="M29.5978 27.4647L37.45 35.315L34.8558 37.9092L27.0055 30.057C24.0845 32.3986 20.4513 33.6722 16.7076 33.6668C7.59964 33.6668 0.207642 26.2748 0.207642 17.1668C0.207642 8.05885 7.59964 0.666847 16.7076 0.666847C25.8156 0.666847 33.2076 8.05885 33.2076 17.1668C33.213 20.9105 31.9394 24.5437 29.5978 27.4647ZM25.9201 26.1043C28.2468 23.7116 29.5462 20.5043 29.541 17.1668C29.541 10.0755 23.7971 4.33351 16.7076 4.33351C9.61631 4.33351 3.87431 10.0755 3.87431 17.1668C3.87431 24.2563 9.61631 30.0002 16.7076 30.0002C20.0451 30.0054 23.2524 28.706 25.6451 26.3793L25.9201 26.1043Z" fill="#9B9186"/>
</svg>
